# xmcd
#
# Track frame offsets:
#	150
#	14569
#	28442
#	42144
#	56748
#	74771
#	87717
#	101869
#	116754
#	131072
#	143871
#	159934
#	173703
#	186215
#	200554
#	220722
#	233245
#	253126
#	266037
#	281389
#
# Disc length: 3957 seconds
#
# Revision: 0
# Processed by: cddbd v1.5.2PL0 Copyright (c) Steve Scherf et al.
# Submitted via: EasyCDDAExtractor 16.0.6.1
#
DISCID=3d0f7314
DTITLE=Συλλογικός δίσκος - Όλα τα ρεμπέτικα 20
DYEAR=2008
DGENRE=Ρεμπέτικη
TTITLE0=Καζαντζίδης Στέλιος - Βαριά χτυπούν τα σήμαντρα [Βασ. Τσιτσάνης]
TTITLE1=Γλυκερία - Πασαλιμανι΄ώτισσα [Παν. Τούντας]
TTITLE2=Ιακωβίδης Αγάθωνας - Σού 'χει λάχει [Γιώργος Μπάτης]
TTITLE3=Μπέλλου Σωτηρία - Σαν πεθάνω στο καράβι [παραδ., διασκ. Μπ. Μπακάλης]
TTITLE4=Δασκαλάκης Μιχάλης - Ο ψαράς μέσα στην χώρα [Γ. Μουφλουζέλης]
TTITLE5=Λαμπράκη Χαρούλα - Μικρός αρραβωνιάστηκα [Μ. Βαμβακάρης]
TTITLE6=Ζαγοραίος Σπύρος - Παίζει το μπαγλαμαδάκι [Κ. Καπλάνης-Στ. Παγιουμτζής
TTITLE6=]
TTITLE7=Χατζηχρήστος Απόστολος - Φτώχεια [Απ. Χατζηχρήστος]
TTITLE8=Δημητριανάκης Μανώλης-Ρεμπέτικη κομπανία - Τα μπλε παράθυρα [Μ. Βαμβακ
TTITLE8=άρης]
TTITLE9=Αλεξάνδρα - Καλογριά [Βαγγ. Παπάζογλου]
TTITLE10=Λεμπέσης Γιάννης - Η σπίθα γίνεται φωτιά [Γ. Λεμπέσης]
TTITLE11=Γκολές Μπάμπης - Εγώ το είδα τ' όνειρο [Μ. Σουγιούλ-Ν. Φατσέας]
TTITLE12=Κυριαζής Γιάννης - Μάννα, με μαχαιρώσανε [Μ. Βαμβακάρης]
TTITLE13=Γενίτσαρης Μιχάλης - Θα κλειστώ σε μοναστήρι [Μ. Γενίτσαρης]
TTITLE14=Ευσταθίου Δημήτρης - Βρε, τι μού λες [Δ. Ευσταθίου]
TTITLE15=Μουφλουζέλης Γιώργος - Καλές και οι ελιές [Γ. Μουφλουζέλης]
TTITLE16=Παπαδέας Μάριος-Απόδημη κομπανία - Οι δυό χήρες [Κ. Καρίπης-Κ. Μακρής
TTITLE16=]
TTITLE17=Μπίνης Τάκης - Στης γειτονιάς τις σκάλες [Κ. Καπλάνης-Γ. Μητσάκης]
TTITLE18=Βαμβακάρης Μάρκος - Ο Μάρκος υπουργός [Μ. Βαμβακάρης]
TTITLE19=Αμπατζή Ρίτα - Ζούλα η Μαριωρή [Παν. Τούντας]
EXTD=
EXTT0=
EXTT1=
EXTT2=
EXTT3=
EXTT4=
EXTT5=
EXTT6=
EXTT7=
EXTT8=
EXTT9=
EXTT10=
EXTT11=
EXTT12=
EXTT13=
EXTT14=
EXTT15=
EXTT16=
EXTT17=
EXTT18=
EXTT19=
PLAYORDER=
